<svg width="30" height="30" viewBox="0 0 30 30" fill="none" xmlns="http://www.w3.org/2000/svg">
<g id=".">
<path id="Vector" d="M3 15.6875V28.1875H9.25V15.6875H3Z" stroke="white" stroke-width="0.6" stroke-linecap="round" stroke-linejoin="round"/>
<path id="Vector_2" d="M18 6.9375L18.6629 6.27459C18.4868 6.09838 18.2476 5.99958 17.9984 6C17.7491 6.00044 17.5104 6.10006 17.3348 6.27689L18 6.9375ZM9.25 15.7484L8.58479 15.0878C8.41039 15.2634 8.3125 15.5009 8.3125 15.7484H9.25ZM24.25 28.1875V29.125H24.9465L25.1476 28.4581L24.25 28.1875ZM9.25 28.1875H8.3125C8.3125 28.7053 8.73224 29.125 9.25 29.125V28.1875ZM28 15.7484L28.8976 16.019C28.9833 15.735 28.9294 15.4274 28.7525 15.1893C28.5756 14.9512 28.2966 14.8109 28 14.8109V15.7484ZM18.625 15.7484L17.7264 15.4814L17.3685 16.6859H18.625V15.7484ZM20.5 9.4375L21.3986 9.7045C21.4966 9.37475 21.4061 9.01783 21.1629 8.77459L20.5 9.4375ZM17.3348 6.27689L8.58479 15.0878L9.91521 16.409L18.6653 7.59811L17.3348 6.27689ZM24.25 27.25H9.25V29.125H24.25V27.25ZM25.1476 28.4581L28.8976 16.019L27.1024 15.4778L23.3524 27.9169L25.1476 28.4581ZM28 14.8109H18.625V16.6859H28V14.8109ZM19.5236 16.0154L21.3986 9.7045L19.6014 9.1705L17.7264 15.4814L19.5236 16.0154ZM21.1629 8.77459L18.6629 6.27459L17.3371 7.60041L19.8371 10.1004L21.1629 8.77459ZM10.1875 28.1875V15.7484H8.3125V28.1875H10.1875Z" fill="white"/>
</g>
</svg>
